<svg xmlns="http://www.w3.org/2000/svg" viewBox="0 0 94.4 46.37"><defs><style>.cls-1{fill:#0069b4;}.cls-2{fill:#878787;}</style></defs><title>tmt-logo</title><g id="Ebene_2" data-name="Ebene 2"><g id="Ebene_3" data-name="Ebene 3"><path class="cls-1" d="M90.33,0H69.82a4.07,4.07,0,1,0,0,8.13h6.51v21h8.13v-21h5.87a4.07,4.07,0,1,0,0-8.13Z"/><path class="cls-1" d="M28.65,4.09A4.07,4.07,0,0,0,24.59,0H4.07a4.07,4.07,0,0,0,0,8.13h6.51v21h8.14v-21h5.87A4.06,4.06,0,0,0,28.65,4.09Z"/><path class="cls-1" d="M35.49,29.13l2.22-13.95,5.7,11.67h0A4,4,0,0,0,47,29.13h.24a4,4,0,0,0,1.67-.41,4.07,4.07,0,0,0,1.85-1.84h0L56.65,15l2.24,14.11h8.23L63.18,4.25h0a5,5,0,0,0-9.56-1.34l-6.5,13L40.79,3a5,5,0,0,0-9.58,1.31s-3.11,19.54-4,24.87Z"/><g id="business_solutions"><path class="cls-2" d="M0,37.83H2.49c1.71,0,2.89.58,2.89,2.05a1.82,1.82,0,0,1-1.47,1.83v0c1.23.19,2,.85,2,2,0,1.65-1.31,2.46-3.17,2.46H0Zm2.31,3.58c1.42,0,2-.51,2-1.44s-.68-1.3-2-1.3H1.07v2.74Zm.22,4c1.43,0,2.28-.53,2.28-1.67S4,42.2,2.53,42.2H1.07v3.18Z"/><path class="cls-2" d="M7.08,40H8.14v3.8c0,1.17.35,1.67,1.17,1.67.64,0,1.08-.32,1.67-1V40h1v6.22h-.87l-.09-1h0a2.61,2.61,0,0,1-2,1.12c-1.32,0-1.91-.84-1.91-2.43Z"/><path class="cls-2" d="M13.63,44.81a2.79,2.79,0,0,0,1.83.75c.82,0,1.23-.44,1.23-1s-.74-.92-1.42-1.17c-.88-.32-1.85-.75-1.85-1.79s.79-1.77,2.13-1.77a3.11,3.11,0,0,1,1.93.7l-.5.67a2.28,2.28,0,0,0-1.41-.55c-.79,0-1.14.42-1.14.89s.67.81,1.38,1.08c.89.33,1.89.7,1.89,1.88,0,1-.8,1.85-2.28,1.85a3.77,3.77,0,0,1-2.31-.85Z"/><path class="cls-2" d="M18.65,38.05a.73.73,0,0,1,1.45,0,.73.73,0,0,1-1.45,0Zm.19,2h1.05v6.22H18.84Z"/><path class="cls-2" d="M21.57,40h.87l.09.9h0a2.93,2.93,0,0,1,2.08-1c1.31,0,1.9.85,1.9,2.43v3.94H25.5v-3.8c0-1.16-.36-1.66-1.18-1.66-.64,0-1.07.33-1.7,1v4.5H21.57Z"/><path class="cls-2" d="M30.61,39.85c1.59,0,2.48,1.14,2.48,2.92a4.67,4.67,0,0,1,0,.57h-4.2a2.07,2.07,0,0,0,2.07,2.19A2.77,2.77,0,0,0,32.48,45l.37.69a3.67,3.67,0,0,1-2.05.64,3,3,0,0,1-3-3.24A3,3,0,0,1,30.61,39.85Zm1.56,2.8c0-1.26-.56-2-1.53-2a1.94,1.94,0,0,0-1.79,2Z"/><path class="cls-2" d="M34.27,44.81a2.79,2.79,0,0,0,1.83.75c.82,0,1.23-.44,1.23-1s-.74-.92-1.42-1.17c-.88-.32-1.86-.75-1.86-1.79s.8-1.77,2.14-1.77a3.11,3.11,0,0,1,1.93.7l-.5.67a2.3,2.3,0,0,0-1.42-.55c-.78,0-1.14.42-1.14.89s.68.81,1.39,1.08c.89.33,1.89.7,1.89,1.88,0,1-.81,1.85-2.28,1.85a3.77,3.77,0,0,1-2.31-.85Z"/><path class="cls-2" d="M39.53,44.81a2.74,2.74,0,0,0,1.82.75c.82,0,1.23-.44,1.23-1s-.74-.92-1.42-1.17c-.88-.32-1.85-.75-1.85-1.79s.79-1.77,2.13-1.77a3.16,3.16,0,0,1,1.94.7l-.5.67a2.33,2.33,0,0,0-1.42-.55c-.78,0-1.14.42-1.14.89s.68.81,1.38,1.08c.89.33,1.89.7,1.89,1.88,0,1-.8,1.85-2.27,1.85A3.77,3.77,0,0,1,39,45.52Z"/><path class="cls-2" d="M47.74,44.39a3.24,3.24,0,0,0,2.31,1c1.1,0,1.75-.55,1.75-1.37s-.61-1.12-1.4-1.48l-1.21-.53a2.37,2.37,0,0,1-1.7-2.16,2.39,2.39,0,0,1,2.65-2.22,3.44,3.44,0,0,1,2.47,1l-.56.69a2.72,2.72,0,0,0-1.91-.79c-1,0-1.57.47-1.57,1.23S49.31,41,50,41.23l1.2.51A2.34,2.34,0,0,1,52.89,44c0,1.33-1.1,2.39-2.86,2.39a4,4,0,0,1-2.93-1.24Z"/><path class="cls-2" d="M56.66,39.85a3,3,0,0,1,2.88,3.28,2.9,2.9,0,1,1-5.76,0A3,3,0,0,1,56.66,39.85Zm0,5.65c1.08,0,1.79-1,1.79-2.37s-.71-2.41-1.79-2.41-1.79,1-1.79,2.41S55.6,45.5,56.66,45.5Z"/><path class="cls-2" d="M60.85,37.11h1V45c0,.34.14.46.29.46a1.06,1.06,0,0,0,.23,0l.14.79a1.3,1.3,0,0,1-.6.1c-.79,0-1.11-.5-1.11-1.4Z"/><path class="cls-2" d="M63.62,40h1.06v3.8c0,1.17.35,1.67,1.17,1.67.64,0,1.08-.32,1.67-1V40h1v6.22H67.7l-.09-1h0a2.61,2.61,0,0,1-2,1.12c-1.32,0-1.91-.84-1.91-2.43Z"/><path class="cls-2" d="M70.52,40.86H69.6v-.79l1-.07.13-1.73h.88V40h1.67v.86H71.58v3.45c0,.77.24,1.21,1,1.21a2.17,2.17,0,0,0,.7-.17l.2.79a3.62,3.62,0,0,1-1.15.23c-1.33,0-1.77-.84-1.77-2.07Z"/><path class="cls-2" d="M74.21,38.05a.73.73,0,0,1,1.46,0,.73.73,0,0,1-1.46,0Zm.19,2h1v6.22h-1Z"/><path class="cls-2" d="M79.61,39.85a3,3,0,0,1,2.88,3.28,2.9,2.9,0,1,1-5.75,0A3,3,0,0,1,79.61,39.85Zm0,5.65c1.08,0,1.8-1,1.8-2.37s-.72-2.41-1.8-2.41-1.79,1-1.79,2.41S78.55,45.5,79.61,45.5Z"/><path class="cls-2" d="M83.83,40h.86l.09.9h0a2.93,2.93,0,0,1,2.09-1c1.3,0,1.89.85,1.89,2.43v3.94h-1v-3.8c0-1.16-.36-1.66-1.17-1.66a2.39,2.39,0,0,0-1.71,1v4.5h-1Z"/><path class="cls-2" d="M90.34,44.81a2.75,2.75,0,0,0,1.83.75c.82,0,1.22-.44,1.22-1s-.74-.92-1.42-1.17c-.88-.32-1.85-.75-1.85-1.79s.79-1.77,2.14-1.77a3.13,3.13,0,0,1,1.93.7l-.5.67a2.3,2.3,0,0,0-1.42-.55c-.78,0-1.14.42-1.14.89s.68.81,1.38,1.08c.9.33,1.89.7,1.89,1.88,0,1-.8,1.85-2.27,1.85a3.8,3.8,0,0,1-2.32-.85Z"/></g><rect class="cls-2" x="46.67" y="-12.64" width="1.06" height="94.4" rx="0.41" transform="translate(12.64 81.75) rotate(-90)"/></g></g></svg>